<svg width="26" height="26" viewBox="0 0 26 26" fill="none" xmlns="http://www.w3.org/2000/svg">
<path d="M12.723 0.00497437C9.34866 0.00497437 6.11251 1.34545 3.72649 3.73148C1.34046 6.1175 0 9.35365 0 12.728C0 16.1023 1.34046 19.3385 3.72649 21.7245C6.11251 24.1105 9.34866 25.451 12.723 25.451C12.904 25.451 13.082 25.451 13.261 25.439V16.152H11.342V12.952H13.261V11.031C13.261 8.41998 14.342 6.866 17.418 6.866H19.979V10.066H18.379C17.179 10.066 17.102 10.513 17.102 11.347V12.947H20.002L19.663 16.147H17.102V24.675C19.9087 23.6465 22.2638 21.6628 23.7543 19.0717C25.2449 16.4806 25.7758 13.4476 25.2539 10.5042C24.7321 7.56093 23.1908 4.89528 20.9003 2.97461C18.6097 1.05394 15.7162 0.000854313 12.727 0L12.723 0.00497437Z" fill="white"/>
</svg>
